<svg version="1.1" xmlns="http://www.w3.org/2000/svg" x="0px" y="0px" viewBox="0 0 1000 1000" fill="#3d4d65">
  <g>
    <g transform="translate(0.000000,512.000000) scale(0.100000,-0.100000)">
      <path d="M2343.3,5006.2c-381-65.1-721.8-323.5-896-681.6c-130.2-268-122.5,46-122.5-4705.8c0-3869.2,3.8-4313.4,30.6-4351.7c15.3-23,49.8-42.1,74.7-42.1c30.6,0,662.4,409.7,1734.5,1125.7l1688.6,1123.8h145.5h145.5l1686.7-1123.8C8004.5-4432.2,8531-4775,8567.3-4775c118.7,0,111-335,105.3,4453.1l-5.7,4363.1l-51.7,139.8c-70.9,193.4-157,335-292.9,472.9c-137.8,141.7-292.9,237.4-497.8,310.2l-153.2,53.6l-2613.3,1.9C3604.9,5021.6,2400.7,5015.8,2343.3,5006.2z M7317.1,3767.6c36.4-19.1,82.3-65.1,99.6-101.5c32.5-61.3,34.5-250.8,34.5-3160.8v-3097.6L6593.5-2020c-903.7,601.2-1001.3,654.8-1296.2,708.4c-306.3,57.4-696.9,9.6-972.6-118.7c-76.6-36.4-501.6-306.3-945.8-603.1c-446.1-296.7-813.7-539.9-819.4-539.9c-5.7,0-9.6,1389.9-9.6,3088.1c0,2900.5,1.9,3090,34.5,3151.3c17.2,36.4,63.2,82.3,99.6,101.5c63.2,32.5,170.4,34.5,2316.5,34.5C7146.8,3802,7254,3800.1,7317.1,3767.6z"/>
      <path d="M4878.1,3074.5c-86.2-76.6-122.5-157-300.6-649L4430.1,2012l-369.5-11.5c-606.9-19.1-783-49.8-859.6-145.5c-107.2-135.9-30.6-239.3,469.1-620.3c279.5-214.4,400.1-317.8,396.3-338.8c-3.8-19.2-53.6-187.6-109.1-377.2c-151.2-507.3-166.6-582-158.9-695c11.5-130.2,67-195.3,172.3-195.3c113,0,166.6,30.6,606.9,333.1c222.1,153.2,413.5,279.5,423.1,279.5c9.6,0,201-126.4,423.1-279.5C5864-341,5917.6-371.6,6030.6-371.6c105.3,0,160.8,65.1,172.3,195.3c7.7,112.9-7.7,187.6-158.9,695c-55.5,189.5-105.3,359.9-109.1,377.2c-3.8,21.1,114.9,124.4,396.3,338.8c490.1,375.3,570.5,478.6,476.7,610.7c-72.8,103.4-241.2,134-848.1,153.2l-388.6,13.4l-147.4,413.5c-82.3,227.8-168.5,451.8-191.4,501.6c-55.5,113-158.9,204.9-231.7,204.9C4966.1,3131.9,4920.2,3110.9,4878.1,3074.5z"/>
    </g>
  </g>
</svg>