<svg width="120px" height="40px" viewBox="0 0 120 40" xmlns="http://www.w3.org/2000/svg">
  <g id="Logo/mvpf-match" stroke="none" stroke-width="1" fill="none" fill-rule="evenodd">
    <path
      d="M74.2961959,19.0693069 C77.9405941,19.0693069 80.3960396,21.18525 80.3960396,24.3339747 L80.3960396,24.3339747 L80.3960396,32.9488857 L76.2605524,32.9488857 L76.2605524,31.790155 L76.2088588,31.790155 C75.7177697,32.7221775 74.3995831,33.3267327 72.8487754,33.3267327 C69.876394,33.3267327 68.1188119,31.790155 68.1188119,29.1956058 C68.1188119,27.1552321 69.5662324,25.8705524 72.6936946,25.1400483 C75.0974466,24.5606829 75.8211569,24.2080257 75.8211569,23.5782808 C75.8211569,22.9989154 75.3042209,22.6966379 74.2961959,22.6966379 C73.1589369,22.6966379 72.5386139,23.3263828 72.3059927,24.6614421 L72.3059927,24.6614421 L68.1188119,23.8301788 C68.5323606,21.1096806 71.1428869,19.0693069 74.2961959,19.0693069 Z M98.8433843,18.6732673 C100.577558,18.6732673 102.031203,19.1600083 103.178818,20.1591082 C104.351935,21.1325902 105.066007,22.4391054 105.346535,24.104272 L105.346535,24.104272 L100.934593,24.9240463 C100.705071,23.6687669 99.9654965,22.9770823 98.8688869,22.9770823 C97.4662466,22.9770823 96.650165,24.078654 96.650165,26 C96.650165,27.921346 97.4662466,29.0229177 98.8688869,29.0229177 C99.9654965,29.0229177 100.705071,28.3312331 100.934593,27.0759537 L100.934593,27.0759537 L105.346535,27.895728 C105.066007,29.5608946 104.351935,30.8674098 103.178818,31.8665097 C102.031203,32.8399917 100.577558,33.3267327 98.8433843,33.3267327 C94.8649865,33.3267327 91.8811881,30.2781971 91.8811881,26 C91.8811881,21.7218029 94.8649865,18.6732673 98.8433843,18.6732673 Z M24.2197432,6.63077628 C25.060774,5.78974124 26.4243745,5.78974124 27.2654053,6.63077628 L27.2654053,6.63077628 L38.5771477,17.9425174 C39.4181785,18.783548 39.4181785,20.1471484 38.5771477,20.988179 L38.5771477,20.988179 L27.2654053,32.2999201 C26.4243745,33.1409507 25.060774,33.1409507 24.2197432,32.2999201 L24.2197432,32.2999201 L19.604,27.684 L14.9881768,32.2999201 C14.1891976,33.0988992 12.918599,33.1388482 12.0724578,32.419767 L11.9425146,32.2999201 L0.630775844,20.988179 C-0.210259348,20.1471484 -0.210259348,18.783548 0.630780244,17.9425174 L0.630780244,17.9425174 L11.9425146,6.63077628 C12.7835454,5.78974124 14.147146,5.78974124 14.9881768,6.63077628 L14.9881768,6.63077628 L19.604,11.246 Z M51.9178868,15.1089109 L56.2248812,25.980198 L56.2758515,25.980198 L60.5573608,15.1089109 L66.1386139,15.1089109 L66.1386139,32.9306931 L61.3474011,32.9306931 L61.3474011,23.1796322 L61.2964308,23.1796322 L57.4481695,32.9306931 L55.027078,32.9306931 L51.1788167,23.1796322 L51.1278464,23.1796322 L51.1278464,32.9306931 L46.3366337,32.9306931 L46.3366337,15.1089109 L51.9178868,15.1089109 Z M87.9073017,15.9009901 L87.9073017,19.4594355 L91.0891089,19.4594355 L91.0891089,23.2212206 L87.9073017,23.2212206 L87.9073017,27.4405202 C87.9073017,28.2538791 88.2580521,28.6097237 89.0848209,28.6097237 L89.0848209,28.6097237 L90.5880369,28.6097237 L90.5880369,32.9306931 L88.4083737,32.9306931 C84.875816,32.9306931 83.2222784,31.2531402 83.2222784,27.974287 L83.2222784,27.974287 L83.2222784,23.2212206 L80.7920792,23.2212206 L80.7920792,19.4594355 L83.2222784,19.4594355 L83.2222784,15.9009901 L87.9073017,15.9009901 Z M111.367705,14.3168317 L111.367705,20.589448 L111.419395,20.589448 C112.143061,19.5950088 113.487011,19.0340431 115.011877,19.0340431 C116.510899,19.0340431 117.725623,19.4930151 118.630205,20.4109589 C119.534786,21.3289028 120,22.5273294 120,24.0317374 L120,24.0317374 L120,32.9306931 L115.166949,32.9306931 L115.166949,25.1026719 C115.166949,23.9552421 114.443283,23.2412858 113.33194,23.2412858 C112.117216,23.2412858 111.367705,23.9807405 111.367705,25.1026719 L111.367705,25.1026719 L111.367705,32.9306931 L106.534653,32.9306931 L106.534653,14.3168317 L111.367705,14.3168317 Z M12.450125,7.13838656 L1.13839061,18.4501276 C0.577696087,19.0108001 0.577696087,19.9198523 1.13838621,20.4805687 L12.450125,31.7923098 C13.0107975,32.3529822 13.9198499,32.3529822 14.4805665,31.7923098 L19.096,27.176 L12.9080008,20.988179 C12.1090216,20.1891999 12.0690726,18.9186016 12.7881539,18.0724606 L12.9080008,17.9425174 L19.096,11.754 L14.4805665,7.13838656 C13.9198499,6.57769653 13.0107975,6.57769653 12.450125,7.13838656 Z M25.7425743,8.15360711 L21.126,12.769 L26.29992,17.9425174 C27.0988992,18.7414965 27.1388482,20.0120948 26.4197669,20.8582358 L26.29992,20.988179 L21.126,26.161 L25.7425743,30.7770893 L37.0543167,19.4653482 L25.7425743,8.15360711 Z M75.8728504,26.8781444 L75.8211569,26.8781444 C75.6919229,27.2056117 75.3559145,27.4071301 74.3220427,27.7345975 C73.0813966,28.1124445 72.6678478,28.414722 72.6678478,28.9437078 C72.6678478,29.4726936 73.0555498,29.7245915 73.8309536,29.7245915 C74.8648254,29.7245915 75.8728504,29.0192772 75.8728504,28.2383935 L75.8728504,28.2383935 L75.8728504,26.8781444 Z M48.0616264,6 L49.6980801,10.1069307 L49.717641,10.1069307 L51.3443142,6 L53.4653465,6 L53.4653465,12.7326733 L51.6448419,12.7326733 L51.6448419,9.04894046 L51.6252809,9.04894046 L50.1630978,12.7326733 L49.2428428,12.7326733 L47.7806597,9.04894046 L47.7610987,9.04894046 L47.7610987,12.7326733 L45.9405941,12.7326733 L45.9405941,6 L48.0616264,6 Z M55.7581934,6 L57.2227597,10.5108911 L57.2421609,10.5108911 L58.6968009,6 L60.5940594,6 L58.2253062,12.7326733 L56.2301393,12.7326733 L53.8613861,6 L55.7581934,6 Z M63.7866709,6 C65.2591326,6 66.1386139,6.86562878 66.1386139,8.40452488 C66.1386139,9.9434165 65.2591326,10.7898033 63.7866709,10.7898033 L63.7866709,10.7898033 L62.76819,10.7898033 L62.76819,12.7326733 L60.990099,12.7326733 L60.990099,6 Z M63.629393,7.64469782 L62.76819,7.64469782 L62.76819,9.14511894 L63.601338,9.14511894 C64.0553187,9.14511894 64.360948,8.88543076 64.360948,8.37567314 C64.360948,7.88514851 64.1199302,7.64469782 63.629393,7.64469782 L63.629393,7.64469782 Z"
      id="Combined-Shape"
      fill="white"
      fill-rule="nonzero"
    />
  </g>
</svg>