<svg class="icon" width="30px" height="30px" viewBox="0 0 1024 1024" xmlns="http://www.w3.org/2000/svg">
  <path d="M323.261 53.043c-4.417 4.417-8.032 9.236-8.032 10.843 0 8.433 21.685 33.732 89.952 105.613l73.889 78.306-427.269 4.016-16.464 10.843c-8.835 6.024-20.48 17.669-25.7 26.102l-9.637 15.26v311.215c0 306.396 0 311.617 8.032 325.271 4.819 7.629 16.063 19.276 25.7 26.102l17.268 12.047h922.001l17.268-12.047c9.637-6.827 20.881-18.472 25.7-26.102 8.032-13.653 8.032-18.873 8.032-325.271v-311.215l-9.637-15.26c-5.22-8.433-16.865-20.079-25.7-26.102l-16.464-10.843-428.072-2.409 80.313-84.731c44.172-46.984 81.518-89.55 83.125-94.77 3.212-13.252-10.441-26.905-24.094-23.291-6.024 1.205-41.361 35.74-89.55 86.738-43.771 46.582-80.313 83.928-81.92 83.526-1.205-0.803-37.345-38.149-80.313-83.526-42.566-45.377-79.51-83.526-81.92-85.133-7.629-5.22-18.472-3.212-26.504 4.819zM870.197 330.125c23.692 6.827 52.204 28.512 65.456 49.794l12.047 19.677 1.205 210.422c0.803 207.209 0.803 210.422-7.629 230.099-10.039 23.291-28.913 41.361-57.424 54.613l-20.48 9.637h-702.744l-20.48-9.637c-28.512-13.252-47.385-31.322-57.424-54.613-8.433-19.677-8.433-22.889-7.629-230.099l1.205-210.422 12.047-19.677c12.851-20.48 41.763-42.968 63.849-49.393 18.071-5.22 699.131-5.621 718.004-0.401zM169.059 430.919c-1.205 6.827-2.409 39.353-2.409 72.282v59.432l11.645 6.827c32.125 18.873 32.527 64.251 0 82.724l-11.645 6.827v64.251c0 35.338 1.205 66.66 2.409 70.274 2.409 5.621 36.543 6.425 344.947 6.425s342.538-0.803 344.947-6.425c1.205-3.615 2.409-35.74 2.409-71.881 0-61.038-0.401-65.857-7.629-68.266-4.016-1.205-12.448-6.827-18.071-12.851-18.873-18.873-11.244-59.030 13.653-70.274l12.047-5.22v-65.456c0-37.345-1.607-69.069-4.016-73.487-4.016-7.629-12.448-7.629-344.947-7.629h-340.53l-2.811 12.448zM534.084 510.831l18.873 56.22h59.833c32.929 0 59.833 1.205 59.432 2.811 0 2.008-21.685 18.873-47.787 38.149l-47.385 34.535 17.669 55.416c9.637 30.519 16.464 56.22 15.661 57.023s-22.889-13.653-48.589-32.527l-46.984-34.535-12.448 8.835c-6.827 4.417-29.315 20.881-49.393 35.74-20.48 15.26-37.345 26.102-37.345 24.496 0-1.205 8.433-27.708 18.472-58.629 10.039-30.519 17.669-56.22 16.865-57.023-0.803-0.401-22.889-16.865-49.393-36.543l-48.188-35.74 124.085-4.016 17.669-55.416c9.236-30.117 18.071-55.015 18.873-55.015s9.637 25.299 20.079 56.22z" style="fill: rgb(130, 147, 167);"></path>
</svg>